<svg id="Layer_1" data-name="Layer 1" xmlns="http://www.w3.org/2000/svg" xmlns:xlink="http://www.w3.org/1999/xlink" viewBox="0 0 199.55 149.2"><defs><style>.cls-1,.cls-2{fill:#d7282f;}.cls-1{opacity:0.24;isolation:isolate;}.cls-3{fill:url(#linear-gradient);}.cls-4{fill:url(#linear-gradient-2);}.cls-5{fill:url(#linear-gradient-3);}.cls-6{fill:url(#linear-gradient-4);}.cls-7{fill:url(#linear-gradient-5);}.cls-8{fill:url(#linear-gradient-6);}.cls-9{fill:url(#linear-gradient-7);}.cls-10{fill:url(#linear-gradient-8);}.cls-11{fill:url(#linear-gradient-9);}.cls-12{fill:url(#linear-gradient-10);}.cls-13{fill:url(#linear-gradient-11);}.cls-14{fill:url(#linear-gradient-12);}.cls-15{fill:url(#linear-gradient-13);}.cls-16{fill:url(#linear-gradient-14);}.cls-17{fill:url(#linear-gradient-15);}.cls-18{fill:url(#linear-gradient-16);}.cls-19{fill:url(#linear-gradient-17);}.cls-20{fill:url(#linear-gradient-18);}.cls-21{fill:url(#linear-gradient-19);}.cls-22{fill:url(#linear-gradient-20);}.cls-23{fill:url(#linear-gradient-21);}.cls-24{fill:url(#linear-gradient-22);}</style><linearGradient id="linear-gradient" x1="49.2" y1="13.39" x2="48.73" y2="54.72" gradientTransform="matrix(1, 0, 0, -1, -3.9, 151.1)" gradientUnits="userSpaceOnUse"><stop offset="0" stop-color="#010101" stop-opacity="0"/><stop offset="0.95" stop-color="#010101"/></linearGradient><linearGradient id="linear-gradient-2" x1="25.02" y1="54.68" x2="38.89" y2="54.68" gradientTransform="matrix(1, 0, 0, -1, 0, 252)" xlink:href="#linear-gradient"/><linearGradient id="linear-gradient-3" x1="70.9" y1="62.2" x2="68.38" y2="19.47" gradientTransform="matrix(1, 0, 0, -1, -19.61, 246.87)" xlink:href="#linear-gradient"/><linearGradient id="linear-gradient-4" x1="25.1" y1="47.37" x2="25.41" y2="42.02" gradientTransform="matrix(1, 0, 0, -1, 0, 252)" xlink:href="#linear-gradient"/><linearGradient id="linear-gradient-5" x1="163.13" y1="109.62" x2="169.86" y2="155.22" gradientTransform="matrix(0.99, -0.15, -0.15, -0.99, 15.96, 169.68)" gradientUnits="userSpaceOnUse"><stop offset="0" stop-color="#fff" stop-opacity="0"/><stop offset="0.95" stop-color="#fff"/></linearGradient><linearGradient id="linear-gradient-6" x1="165.43" y1="121.84" x2="168.48" y2="164.98" gradientTransform="matrix(0.99, -0.15, -0.15, -0.99, 15.96, 169.68)" xlink:href="#linear-gradient"/><linearGradient id="linear-gradient-7" x1="163.71" y1="153.71" x2="158.93" y2="117.67" xlink:href="#linear-gradient-5"/><linearGradient id="linear-gradient-8" x1="18.54" y1="137.18" x2="17.96" y2="97.81" gradientTransform="matrix(0.99, 0.13, 0.13, -0.99, 44.81, 143.8)" xlink:href="#linear-gradient-5"/><linearGradient id="linear-gradient-9" x1="300.54" y1="157.93" x2="299.96" y2="118.56" gradientTransform="matrix(0.76, -0.65, -0.65, -0.76, -532.86, -234.13)" xlink:href="#linear-gradient-5"/><linearGradient id="linear-gradient-10" x1="-272.55" y1="109.9" x2="-273.13" y2="70.53" gradientTransform="matrix(0.85, 0.52, 0.52, -0.85, 235.48, 238.71)" xlink:href="#linear-gradient-5"/><linearGradient id="linear-gradient-11" x1="85.63" y1="356.15" x2="85.05" y2="316.77" gradientTransform="matrix(0.96, -0.28, -0.28, -0.96, -140.49, -340.21)" xlink:href="#linear-gradient-5"/><linearGradient id="linear-gradient-12" x1="184.4" y1="47.75" x2="184.02" y2="21.89" gradientTransform="matrix(0.97, -0.23, -0.23, -0.97, -148.77, 127.11)" xlink:href="#linear-gradient-5"/><linearGradient id="linear-gradient-13" x1="348.3" y1="-279.87" x2="347.91" y2="-305.73" gradientTransform="matrix(0.48, -0.88, -0.88, -0.48, -823.05, -20.66)" xlink:href="#linear-gradient-5"/><linearGradient id="linear-gradient-14" x1="168.73" y1="58.52" x2="168.36" y2="33.27" gradientTransform="matrix(0.97, -0.23, -0.23, -0.97, -148.77, 127.11)" xlink:href="#linear-gradient-5"/><linearGradient id="linear-gradient-15" x1="345.88" y1="-272.44" x2="345.51" y2="-297.69" gradientTransform="matrix(0.48, -0.88, -0.88, -0.48, -823.05, -20.66)" xlink:href="#linear-gradient-5"/><linearGradient id="linear-gradient-16" x1="-219.58" y1="64.3" x2="-219.87" y2="44.84" gradientTransform="matrix(0.91, 0.41, 0.41, -0.91, 190.07, 212.82)" xlink:href="#linear-gradient-5"/><linearGradient id="linear-gradient-17" x1="91.86" y1="-89.16" x2="91.58" y2="-108.61" gradientTransform="matrix(0.91, -0.41, -0.41, -0.91, -258.79, -311.59)" xlink:href="#linear-gradient-5"/><linearGradient id="linear-gradient-18" x1="266.28" y1="88.63" x2="265.76" y2="53.45" gradientTransform="matrix(0.96, -0.27, -0.27, -0.96, -156.59, 141.95)" xlink:href="#linear-gradient-5"/><linearGradient id="linear-gradient-19" x1="431.22" y1="-137.67" x2="430.7" y2="-172.85" gradientTransform="matrix(0.44, -0.9, -0.9, -0.44, -836.47, 22.45)" xlink:href="#linear-gradient-5"/><linearGradient id="linear-gradient-20" x1="38.94" y1="171.33" x2="38.31" y2="128.63" gradientTransform="matrix(1, 0.06, 0.06, -1, 97.18, 141.02)" xlink:href="#linear-gradient-5"/><linearGradient id="linear-gradient-21" x1="338.73" y1="228.25" x2="338.1" y2="185.55" gradientTransform="matrix(0.71, -0.71, -0.71, -0.71, -508.32, -190.7)" xlink:href="#linear-gradient-5"/><linearGradient id="linear-gradient-22" x1="142.77" y1="141.27" x2="141.9" y2="101.75" gradientTransform="matrix(0.99, -0.15, -0.15, -0.99, 15.96, 169.68)" gradientUnits="userSpaceOnUse"><stop offset="0" stop-color="#fff" stop-opacity="0"/><stop offset="0.39" stop-color="#fff"/></linearGradient></defs><path class="cls-1" d="M61.87,119.74c-5.77,1-11.57,2.19-16.89,4.62a71.21,71.21,0,0,0-11.2,6.81C23,138.75,11.91,147.44,7.37,159.84a34.74,34.74,0,0,0,32.24,46.63A30.87,30.87,0,0,1,35.1,163c.5-.62,1-1.23,1.59-1.82A42.64,42.64,0,0,1,49,152.61c14.47-7.06,31-8.72,47.14-8.08s22.25-3.18,38.32-1.85c6.42-2.59,7.59-4.47,7.52-5.68-.14-2.42-5.24-2.68-8.6-8-.91-1.43-.67-1.61-2.21-5.43-2.06-5.11-3.57-8.84-5.19-10.56-3.68-3.89-11.12-.79-23.19,1.7C91,117.13,92.86,114.36,61.87,119.74Z" transform="translate(-3.9 -100.9)"/><rect class="cls-2" x="42" y="104.02" width="6.28" height="38.76"/><rect class="cls-3" x="42" y="104.02" width="6.28" height="38.76"/><path class="cls-2" d="M67,193v15.36H23.9V193a8,8,0,0,1,8-8H59A8,8,0,0,1,67,193Z" transform="translate(-3.9 -100.9)"/><path class="cls-4" d="M32,186.35h0a6.92,6.92,0,0,1,6.92,6.93v15H25v-15a6.93,6.93,0,0,1,6.92-6.94Z" transform="translate(-3.9 -100.9)"/><path class="cls-5" d="M67,193v15.35H40.43V192.12a9.15,9.15,0,0,0-6.24-7.1H59A8,8,0,0,1,67,193Z" transform="translate(-3.9 -100.9)"/><path class="cls-2" d="M11.18,206.18H39.33a1.1,1.1,0,0,1,1.1,1.1h0a1.1,1.1,0,0,1-1.1,1.1H11.18a1.11,1.11,0,0,1-1.11-1.1h0A1.11,1.11,0,0,1,11.18,206.18Z" transform="translate(-3.9 -100.9)"/><path class="cls-6" d="M11.18,206.18H39.33a1.1,1.1,0,0,1,1.1,1.1h0a1.1,1.1,0,0,1-1.1,1.1H11.18a1.11,1.11,0,0,1-1.11-1.1h0A1.11,1.11,0,0,1,11.18,206.18Z" transform="translate(-3.9 -100.9)"/><path class="cls-1" d="M32.4,240.28c-3.67.65-7.29,1.5-11,1.85-2.4.23-5.05.35-6.79,2a2.27,2.27,0,0,0-.78,1.38c-.1,1.16,1.11,2,2.19,2.39a32.55,32.55,0,0,0,10,1.82c5.5.34,11,.35,16.54.36H59c4.86,0,10.24-.2,13.71-3.58a4.29,4.29,0,0,0,1.42-2.46,3.8,3.8,0,0,0-2.4-3.64c-2.45-1.12-6.12-.88-8.77-1.18-3.49-.36-7-.57-10.48-.62A106.91,106.91,0,0,0,32.4,240.28Z" transform="translate(-3.9 -100.9)"/><path class="cls-2" d="M55.44,195.35c-.06.2-.24.79-.29,1l-.59,2.18a1.35,1.35,0,0,0,0,.29.23.23,0,0,0,.21.25h.05a1.11,1.11,0,0,0,.62-.26,2.39,2.39,0,0,0,.79-1.85,2.46,2.46,0,0,0-1.13-2.12,3.45,3.45,0,0,0-1.75-.41,3.29,3.29,0,0,0-3.52,3.31,3,3,0,0,0,3.28,3.09,5.38,5.38,0,0,0,1.5-.21,4.44,4.44,0,0,0,1.1-.52l.6.86a4.59,4.59,0,0,1-1.23.57,6.92,6.92,0,0,1-2.07.31,4.37,4.37,0,0,1-3.23-1.16,4,4,0,0,1-1.14-2.9,4.22,4.22,0,0,1,1.2-3.06,4.81,4.81,0,0,1,3.6-1.34c2.29,0,3.91,1.47,3.91,3.52a3.28,3.28,0,0,1-.92,2.35,2.61,2.61,0,0,1-1.85.81,1,1,0,0,1-.84-.39.75.75,0,0,1-.09-.3,1.57,1.57,0,0,1-1.31.62c-1,0-1.59-.73-1.59-1.85,0-1.65,1.09-3,2.39-3a1.09,1.09,0,0,1,1.09.55l.1-.35Zm-2,2.91a3.75,3.75,0,0,0,.39-1.51c0-.4-.22-.68-.57-.68a1.14,1.14,0,0,0-1,.71,3.42,3.42,0,0,0-.39,1.47c0,.52.2.79.57.79S53.16,198.76,53.42,198.26Z" transform="translate(-3.9 -100.9)"/><polygon class="cls-2" points="195.64 13.13 139.21 42.41 127.24 24.14 195.64 13.13"/><polygon class="cls-7" points="195.64 13.13 139.21 42.41 127.24 24.14 195.64 13.13"/><polygon class="cls-8" points="131.27 30.48 182.54 19.43 195.64 13.13 127.24 24.14 131.27 30.48"/><polygon class="cls-2" points="112.05 4.19 199.55 13.19 124.88 15.21 112.05 4.19"/><polygon class="cls-2" points="77.52 34.9 124.88 15.21 199.55 13.19 77.52 34.9"/><polygon class="cls-9" points="112.05 4.19 199.55 13.19 124.88 15.21 112.05 4.19"/><rect class="cls-2" x="75.14" y="133.86" width="11.02" height="17.87" transform="translate(-68.45 118.14) rotate(-88.25)"/><polygon class="cls-10" points="85.51 47.67 67.65 47.13 67.98 36.12 86.2 36.53 85.51 47.67"/><polygon class="cls-11" points="67.98 36.12 76.67 45.48 85.91 36.83 67.98 36.12"/><rect class="cls-2" x="41.72" y="121.62" width="11.02" height="17.87" transform="translate(-94.83 15.94) rotate(-64.44)"/><polygon class="cls-12" points="49.01 38.49 32.89 30.78 37.64 20.84 54.13 28.57 49.01 38.49"/><polygon class="cls-13" points="37.64 20.84 41.8 32.92 53.75 28.73 37.64 20.84"/><rect class="cls-2" x="22.42" y="156.37" width="11.74" height="7.23" transform="translate(-54.65 -82.86) rotate(-19.08)"/><polygon class="cls-14" points="31.12 60.6 20.02 64.44 17.66 57.6 28.93 53.6 31.12 60.6"/><polygon class="cls-15" points="17.66 57.6 25.17 61.32 28.83 53.85 17.66 57.6"/><rect class="cls-2" x="4.74" y="149.06" width="11.46" height="7.06" transform="translate(-53.21 -89.09) rotate(-19.08)"/><polygon class="cls-16" points="13.14 53.16 2.31 56.91 0 50.23 11.01 46.32 13.14 53.16"/><polygon class="cls-17" points="0 50.23 7.34 53.87 10.9 46.57 0 50.23"/><rect class="cls-2" x="9.97" y="175.84" width="5.44" height="8.83" transform="matrix(0.31, -0.95, 0.95, 0.31, -166.57, 35.73)"/><polygon class="cls-18" points="12.14 83.31 3.74 80.59 5.43 75.41 14.01 78.12 12.14 83.31"/><polygon class="cls-19" points="5.43 75.41 8.25 81.06 13.83 78.22 5.43 75.41"/><rect class="cls-2" x="79.32" y="108.72" width="15.97" height="9.84" transform="translate(-39.44 -61.06) rotate(-21.47)"/><polygon class="cls-20" points="92.64 14.41 77.78 20.25 74.17 11.1 89.27 5.02 92.64 14.41"/><polygon class="cls-21" points="74.17 11.1 84.6 15.73 89.14 5.37 74.17 11.1"/><rect class="cls-2" x="137.35" y="101.53" width="19.38" height="11.95" transform="matrix(1, -0.05, 0.05, 1, -8.87, -93.76)"/><polygon class="cls-22" points="153.11 12.11 133.75 13.03 133.18 1.1 152.9 0 153.11 12.11"/><polygon class="cls-23" points="133.18 1.1 143.36 10.49 152.62 0.34 133.18 1.1"/><polygon class="cls-24" points="77.52 34.9 124.88 15.21 199.55 13.19 77.52 34.9"/></svg>