<svg id="Layer_1" data-name="Layer 1" xmlns="http://www.w3.org/2000/svg" xmlns:xlink="http://www.w3.org/1999/xlink" viewBox="0 0 112.8 80.63"><defs><style>.cls-1,.cls-2{fill:#d7282f;}.cls-1{opacity:0.24;isolation:isolate;}.cls-3{fill:url(#linear-gradient);}.cls-4{fill:url(#linear-gradient-2);}.cls-5{fill:url(#linear-gradient-3);}.cls-6{fill:url(#linear-gradient-4);}.cls-7{fill:url(#linear-gradient-5);}.cls-8{fill:url(#linear-gradient-6);}.cls-9{fill:url(#linear-gradient-7);}.cls-10{fill:url(#linear-gradient-8);}.cls-11{fill:url(#linear-gradient-9);}.cls-12{fill:url(#linear-gradient-10);}.cls-13{fill:url(#linear-gradient-11);}.cls-14{fill:url(#linear-gradient-12);}.cls-15{fill:url(#linear-gradient-13);}.cls-16{fill:url(#linear-gradient-14);}.cls-17{fill:url(#linear-gradient-15);}.cls-18{fill:url(#linear-gradient-16);}.cls-19{fill:url(#linear-gradient-17);}.cls-20{fill:url(#linear-gradient-18);}</style><linearGradient id="linear-gradient" x1="-28.95" y1="67.03" x2="-29.51" y2="29.58" gradientTransform="matrix(0.99, 0.13, 0.13, -0.99, 62.97, 75.33)" gradientUnits="userSpaceOnUse"><stop offset="0" stop-color="#fff" stop-opacity="0"/><stop offset="0.95" stop-color="#fff"/></linearGradient><linearGradient id="linear-gradient-2" x1="217.07" y1="110.03" x2="216.51" y2="72.58" gradientTransform="matrix(0.76, -0.65, -0.65, -0.76, -514.7, -302.6)" xlink:href="#linear-gradient"/><linearGradient id="linear-gradient-3" x1="-243.97" y1="52.87" x2="-244.52" y2="15.42" gradientTransform="matrix(0.85, 0.52, 0.52, -0.85, 253.64, 170.24)" xlink:href="#linear-gradient"/><linearGradient id="linear-gradient-4" x1="62.81" y1="260.45" x2="62.26" y2="223" gradientTransform="matrix(0.96, -0.28, -0.28, -0.96, -122.33, -408.68)" xlink:href="#linear-gradient"/><linearGradient id="linear-gradient-5" x1="167" y1="-11.66" x2="166.64" y2="-36.25" gradientTransform="matrix(0.97, -0.23, -0.23, -0.97, -130.61, 58.64)" xlink:href="#linear-gradient"/><linearGradient id="linear-gradient-6" x1="292.79" y1="-330.51" x2="292.42" y2="-355.1" gradientTransform="matrix(0.48, -0.88, -0.88, -0.48, -804.9, -89.13)" xlink:href="#linear-gradient"/><linearGradient id="linear-gradient-7" x1="152.1" y1="-1.42" x2="151.74" y2="-25.43" gradientTransform="matrix(0.97, -0.23, -0.23, -0.97, -130.61, 58.64)" xlink:href="#linear-gradient"/><linearGradient id="linear-gradient-8" x1="290.49" y1="-323.44" x2="290.13" y2="-347.45" gradientTransform="matrix(0.48, -0.88, -0.88, -0.48, -804.9, -89.13)" xlink:href="#linear-gradient"/><linearGradient id="linear-gradient-9" x1="-197.97" y1="7.68" x2="-198.25" y2="-10.82" gradientTransform="matrix(0.91, 0.41, 0.41, -0.91, 208.23, 144.34)" xlink:href="#linear-gradient"/><linearGradient id="linear-gradient-10" x1="64.45" y1="-161.03" x2="64.18" y2="-179.53" gradientTransform="matrix(0.91, -0.41, -0.41, -0.91, -240.64, -380.07)" xlink:href="#linear-gradient"/><linearGradient id="linear-gradient-11" x1="243.06" y1="28.22" x2="242.57" y2="-5.24" gradientTransform="matrix(0.96, -0.27, -0.27, -0.96, -138.44, 73.48)" xlink:href="#linear-gradient"/><linearGradient id="linear-gradient-12" x1="371.19" y1="-193.26" x2="370.69" y2="-226.71" gradientTransform="matrix(0.44, -0.9, -0.9, -0.44, -818.31, -46.02)" xlink:href="#linear-gradient"/><linearGradient id="linear-gradient-13" x1="54.69" y1="67.66" x2="61.09" y2="111.02" gradientTransform="matrix(0.97, -0.26, -0.26, -0.97, 44.44, 119.68)" xlink:href="#linear-gradient"/><linearGradient id="linear-gradient-14" x1="56.88" y1="79.27" x2="59.77" y2="120.3" gradientTransform="matrix(0.97, -0.26, -0.26, -0.97, 44.44, 119.68)" gradientUnits="userSpaceOnUse"><stop offset="0" stop-color="#010101" stop-opacity="0"/><stop offset="0.95" stop-color="#010101"/></linearGradient><linearGradient id="linear-gradient-15" x1="55.24" y1="109.59" x2="50.69" y2="75.31" gradientTransform="matrix(0.97, -0.26, -0.26, -0.97, 44.44, 119.68)" xlink:href="#linear-gradient"/><linearGradient id="linear-gradient-16" x1="-57.95" y1="105.38" x2="-58.55" y2="64.77" gradientTransform="matrix(1, -0.06, -0.06, -1, 121.7, 81.6)" xlink:href="#linear-gradient"/><linearGradient id="linear-gradient-17" x1="225.37" y1="216.83" x2="224.77" y2="176.22" gradientTransform="matrix(0.62, -0.78, -0.78, -0.62, -518.82, -176.1)" xlink:href="#linear-gradient"/><linearGradient id="linear-gradient-18" x1="35.32" y1="97.75" x2="34.5" y2="60.17" gradientTransform="matrix(0.97, -0.26, -0.26, -0.97, 44.44, 119.68)" gradientUnits="userSpaceOnUse"><stop offset="0" stop-color="#fff" stop-opacity="0"/><stop offset="0.39" stop-color="#fff"/></linearGradient></defs><path class="cls-1" d="M42,187a48.41,48.41,0,0,0-11,5,65.65,65.65,0,0,0-14,11c-6,6.18-9,11.8-12.24,17.65C.56,228.36.13,231.57,0,233c-.15,1.68,0,2.66,0,9,0,3.38,0,6.15,0,8,24.83-20.72,30.76-25.83,31.13-26.3A21.26,21.26,0,0,1,32.65,222h0a37.74,37.74,0,0,1,11.72-8.19c2.27-1,2-.5,4.28-1.49A36.43,36.43,0,0,0,56,208a57.47,57.47,0,0,1,11-6,37,37,0,0,1,5-5c3-2.43,4.84-3.2,5-5,.11-1.24-.66-2.25-2-4a30.12,30.12,0,0,0-4-4c.1-.14,3.13,1.75,3,2s-3.69-2.21-9-3a25.55,25.55,0,0,0-7,0c-2.54.3-3.55.78-8,2C44.82,186.42,44.62,186.21,42,187Z" transform="translate(14.25 -169.37)"/><rect class="cls-2" x="19.22" y="195.94" width="10.48" height="17" transform="translate(-166.39 53.27) rotate(-88.25)"/><polygon class="cls-3" points="47.05 40.57 30.06 40.05 30.38 29.58 47.7 29.97 47.05 40.57"/><polygon class="cls-4" points="30.38 29.58 38.64 38.48 47.43 30.25 30.38 29.58"/><rect class="cls-2" x="37.43" y="184.31" width="10.48" height="17" transform="translate(-135.42 -21.25) rotate(-64.44)"/><polygon class="cls-5" points="62.33 31.83 47 24.5 51.52 15.05 67.2 22.4 62.33 31.83"/><polygon class="cls-6" points="51.52 15.05 55.48 26.53 66.84 22.55 51.52 15.05"/><rect class="cls-2" x="19.08" y="217.36" width="11.16" height="6.88" transform="translate(-56.57 -149.18) rotate(-19.08)"/><polygon class="cls-7" points="45.31 52.86 34.76 56.51 32.51 50.01 43.24 46.2 45.31 52.86"/><polygon class="cls-8" points="32.51 50.01 39.66 53.55 43.13 46.44 32.51 50.01"/><rect class="cls-2" x="2.27" y="210.4" width="10.9" height="6.72" transform="translate(-55.2 -155.1) rotate(-19.08)"/><polygon class="cls-9" points="28.21 45.79 17.91 49.35 15.72 43 26.19 39.28 28.21 45.79"/><polygon class="cls-10" points="15.72 43 22.7 46.46 26.09 39.52 15.72 43"/><rect class="cls-2" x="7.24" y="235.88" width="5.18" height="8.4" transform="translate(-207.28 5.86) rotate(-72)"/><polygon class="cls-11" points="27.27 74.46 19.28 71.87 20.88 66.95 29.04 69.53 27.27 74.46"/><polygon class="cls-12" points="20.88 66.95 23.57 72.32 28.87 69.62 20.88 66.95"/><rect class="cls-2" x="73.2" y="172.04" width="15.19" height="9.36" transform="translate(-44.82 -127.54) rotate(-21.47)"/><polygon class="cls-13" points="103.82 8.93 89.69 14.49 86.26 5.78 100.62 0 103.82 8.93"/><polygon class="cls-14" points="86.26 5.78 96.18 10.19 100.5 0.33 86.26 5.78"/><polygon class="cls-2" points="109.1 13.19 59.11 47.21 45.75 31.3 109.1 13.19"/><polygon class="cls-15" points="109.1 13.19 59.11 47.21 45.75 31.3 109.1 13.19"/><polygon class="cls-16" points="50.26 36.83 97.44 20.63 109.1 13.19 45.75 31.3 50.26 36.83"/><polygon class="cls-2" points="29.16 14.17 112.8 12.81 42.51 23.13 29.16 14.17"/><polygon class="cls-2" points="0 47.06 42.51 23.13 112.8 12.81 0 47.06"/><polygon class="cls-17" points="29.16 14.17 112.8 12.81 42.51 23.13 29.16 14.17"/><rect class="cls-2" x="35.32" y="176.64" width="18.43" height="11.36" transform="translate(-15.33 -159.47) rotate(-9.54)"/><polygon class="cls-18" points="68.82 17.02 50.64 20.08 48.76 8.87 67.26 5.61 68.82 17.02"/><polygon class="cls-19" points="48.76 8.87 59.43 16.59 67.03 5.97 48.76 8.87"/><polygon class="cls-20" points="0 47.06 42.51 23.13 112.8 12.81 0 47.06"/></svg>