<svg id="Layer_1" data-name="Layer 1" xmlns="http://www.w3.org/2000/svg" viewBox="0 0 732 596.99"><defs><style>.cls-1{fill:#d7282f;}.cls-2{fill:#f4b223;}.cls-3{fill:#96262c;}.cls-4{fill:#ff9e18;}.cls-5{fill:#bbbdbf;}</style></defs><path class="cls-1" d="M737,295.72c2.72,12.36-.32,13.55-6.71,2.62L643.44,150.68c-6.42-10.92-1.35-20.78,11.25-21.92l21.88-2c12.58-1.12,25.12,8.06,27.81,20.4Z" transform="translate(-339 -69.34)"/><path class="cls-2" d="M911.1,365c-2.71,35.19-39.56,76.52-86.84,9.77C772.77,302,751,204.66,740.67,159.67c-6.88-30.12,1-42.6,8.64-44.13,39-7.82,36.62,31.19,45.14,63.34,59,224,109.79,235.66,116.91,162.91A220,220,0,0,1,911.1,365" transform="translate(-339 -69.34)"/><path d="M499.18,114c3.38-35.12,41-75.78,87-8.14,50.12,73.66,70.11,171.41,79.56,216.62,6.32,30.21-1.75,42.53-9.45,43.95-39.12,7.1-36-31.89-43.94-64.2-54.86-225-105.39-237.66-113.88-165a231.08,231.08,0,0,1,.69-23.2" transform="translate(-339 -69.34)"/><path class="cls-3" d="M663.75,143.46c-4.84-10.26-25.9-5.13-21.55,4.75.28.57.52,1.07.73,1.48s.32.66.51,1l86.87,147.66c.36.65.7,1.2,1,1.74.13.2.25.39.35.58s.44.61.63.9.29.42.43.61a7.3,7.3,0,0,0,.43.61c.17.2.33.4.48.61a2.18,2.18,0,0,1,.21.26,9,9,0,0,0,1.76,1.67.1.1,0,0,1,0,.05,2.25,2.25,0,0,0,.51.29h0a30.13,30.13,0,0,0-2.53-7.47S681.87,181.84,663.75,143.46Z" transform="translate(-339 -69.34)"/><path class="cls-4" d="M879.15,409.69c-21.31,4.53-69.55-51.84-107.62-205.64-11.27-45.55-7.81-73.06-31.35-79.16-2.64,7-3.31,18.21.49,34.78,10.3,45,32.1,142.33,83.59,215.07,21.07,29.75,40.06,38,54.89,34.95Z" transform="translate(-339 -69.34)"/><path class="cls-5" d="M677.72,623.14c0,4.36-2.45,7.34-7.27,9,4.82,1.57,7.27,4.74,7.27,9.5v2.61q0,11.9-18.75,11.89H625.68c-1.93,0-2.89-.9-2.89-2.81s1-2.78,2.89-2.78h34.48c7,0,10.54-2,10.54-5.93v-4.54c0-3.2-3.45-4.82-10.3-4.82H625.68c-2,0-3-.92-3-2.76s1-2.93,3-2.93h34.79c6.81,0,10.23-1.68,10.23-5.05V620q0-4.81-10.45-4.81H625.5c-2,0-3-.94-3-2.78s1-2.8,3-2.8h32.91q19.3,0,19.31,10.75Z" transform="translate(-339 -69.34)"/><path class="cls-5" d="M769.68,656.17c-10.43,0-15.66-3.27-15.66-9.87V612.18q0-2.83,3.45-2.84c2.38,0,3.58.95,3.58,2.84V646.3c0,2.86,2.74,4.28,8.27,4.28h33c1.73,0,2.63,1,2.63,3a2.32,2.32,0,0,1-2.63,2.59Z" transform="translate(-339 -69.34)"/><path class="cls-5" d="M922.2,647c0,6.14-5,9.21-14.91,9.21H876.47c-1.77,0-2.63-.94-2.63-2.84s.86-2.75,2.63-2.75h31.66c4.71,0,7.06-1.85,7.06-5.52V639.7c0-3.07-2.92-4.62-8.9-4.62h-18.9q-15.66,0-15.65-8.3v-7.65c0-6.34,4.48-9.48,13.47-9.48h11.43c1.76,0,2.63,1,2.63,2.85s-.87,2.73-2.63,2.73H884.12c-3.64,0-5.49,1.45-5.49,4.35v6.53c0,2.35,2.53,3.49,7.59,3.49h19.24c11.19,0,16.74,3.15,16.74,9.43Z" transform="translate(-339 -69.34)"/><path class="cls-5" d="M1018,614.91q-14.91,0-14.91,7.74v30.61c0,1.91-1.16,2.86-3.52,2.86s-3.31-1-3.31-2.86V622.14c0-8.55,7.59-12.8,22.88-12.8h29.1c14.47,0,21.67,4.25,21.67,12.8v31.12c0,1.91-1.16,2.86-3.46,2.86s-3.56-1-3.56-2.86V622.71q0-7.79-13.66-7.8Zm12.25,5.55q0-2.94,3.4-2.94c2.36,0,3.49,1,3.49,2.94v32.47c0,2.34-1.13,3.46-3.49,3.46s-3.4-1.12-3.4-3.46Z" transform="translate(-339 -69.34)"/><path class="cls-5" d="M900.4,665a1.31,1.31,0,0,1-1.32,1.31h-7.34a1.32,1.32,0,0,1-1.33-1.31v-3.94a1.32,1.32,0,0,1,1.33-1.3h7.34a1.31,1.31,0,0,1,1.32,1.3Z" transform="translate(-339 -69.34)"/><path class="cls-5" d="M961.17,612.18c0-1.89-1.13-2.84-3.41-2.84s-3.63.95-3.63,2.84v7.24h7Z" transform="translate(-339 -69.34)"/><path class="cls-5" d="M954.13,653.58c0,1.87,1.19,2.81,3.5,2.81s3.54-.94,3.54-2.81V623.27h-7Z" transform="translate(-339 -69.34)"/><path class="cls-5" d="M839.51,612.25c0-1.91-1.13-2.88-3.37-2.88-2.44,0-3.64,1-3.64,2.88v7.22h7Z" transform="translate(-339 -69.34)"/><path class="cls-5" d="M832.5,653.63c0,1.86,1.15,2.81,3.47,2.81s3.54-1,3.54-2.81V623.32h-7Z" transform="translate(-339 -69.34)"/><path class="cls-5" d="M720,612.11c0-1.91-1.14-2.89-3.39-2.89-2.42,0-3.64,1-3.64,2.89v7.21h7Z" transform="translate(-339 -69.34)"/><path class="cls-5" d="M713,653.46c0,1.86,1.17,2.83,3.47,2.83s3.56-1,3.56-2.83V623.14h-7Z" transform="translate(-339 -69.34)"/><path class="cls-1" d="M902,571.13a58,58,0,0,1-10-.92v18.13c3.6.2,6.93.28,10,.28s6.29-.08,9.93-.29v-18.1A57.11,57.11,0,0,1,902,571.13Z" transform="translate(-339 -69.34)"/><path d="M483.68,492.41a27.67,27.67,0,0,0-13.18-6.68,68.43,68.43,0,0,0-13.19-1.52H357.46a37.05,37.05,0,0,0-8,1.07A12.16,12.16,0,0,0,342,490.4a13.83,13.83,0,0,0-2.47,6.14,42.62,42.62,0,0,0-.48,5.57v85.36h22.86V508.76a18.9,18.9,0,0,1,.28-4,3.26,3.26,0,0,1,.66-1.46,6.74,6.74,0,0,1,1.43-1,8.18,8.18,0,0,1,3.61-.56h36.75v85.74h22.83V501.73h24.67a38.78,38.78,0,0,1,7,.76,11.73,11.73,0,0,1,6.74,4.1,15.08,15.08,0,0,1,3.56,7.23,38.55,38.55,0,0,1,.82,7.44v66.21H493V517.73a42.4,42.4,0,0,0-2.41-14.44A28.51,28.51,0,0,0,483.68,492.41Z" transform="translate(-339 -69.34)"/><path d="M675.22,538.24a9.46,9.46,0,0,1-1.49-4.9,8.33,8.33,0,0,1,1-4.23,16.5,16.5,0,0,1,2.38-3.2l3.11-3.37,42.48-38.33h-27.6l-36.94,34.25c-1,1.22-2.09,2.57-3.21,4.08-.48.69-1,1.36-1.48,2.09-1.69,2.39-2.52,5.52-2.52,9.45a17.28,17.28,0,0,0,2.42,9.34,42.74,42.74,0,0,0,4.61,6.28l41.4,37.77h28.35L678.6,542.85A36.49,36.49,0,0,1,675.22,538.24Z" transform="translate(-339 -69.34)"/><path d="M622.42,522.54v64.93h22.87V446.63s-22.87,0-22.87,16Z" transform="translate(-339 -69.34)"/><path d="M1069.81,551.7a21.43,21.43,0,0,0-5-9.43,27.54,27.54,0,0,0-10.18-6.52q-6.29-2.41-15.61-5.2l-29-6.27a17.56,17.56,0,0,1-2.76-.76c-.9-.29-1.85-.62-2.82-1-.25-.08-.49-.16-.74-.26-1.25-.45-2.45-.92-3.63-1.46a13.05,13.05,0,0,1-2.91-1.78,7.54,7.54,0,0,1-2.84-3.83,17.38,17.38,0,0,1-.48-4.16,20,20,0,0,1,.38-3.95,6.06,6.06,0,0,1,2.47-3.47,8,8,0,0,1,4.06-1.72c1.36-.12,2.67-.18,3.94-.18h61.68V484.21h-65.1c-2.22,0-4.48.08-6.76.2a35,35,0,0,0-6.67,1,22.25,22.25,0,0,0-6.14,2.72,20.31,20.31,0,0,0-5.27,5,22.54,22.54,0,0,0-3.95,8.95,40.38,40.38,0,0,0,0,17.14,20.26,20.26,0,0,0,1,3.29,24,24,0,0,0,3,5.64,25.69,25.69,0,0,0,8.8,7.34,61,61,0,0,0,13.85,5.13l26.73,5.52q5.45,1.55,8.77,2.52c2.22.68,4,1.25,5.38,1.78a27.21,27.21,0,0,1,3,1.23,8.23,8.23,0,0,1,1.62,1,7.76,7.76,0,0,1,2.38,3.78,16.6,16.6,0,0,1,.47,4c0,.82-.06,1.87-.18,3.1a5.5,5.5,0,0,1-1.72,3.37,7.07,7.07,0,0,1-3.75,2.44,17.6,17.6,0,0,1-3.87.52H973v17.49h72.9a53.84,53.84,0,0,0,8.19-.66,18.2,18.2,0,0,0,8.38-3.6,25.06,25.06,0,0,0,5.75-7.54c1.86-3.39,2.81-8.23,2.81-14.46A43.2,43.2,0,0,0,1069.81,551.7Z" transform="translate(-339 -69.34)"/><path d="M956.5,525.86c-.06-1.08-.19-2.2-.33-3.32a67.89,67.89,0,0,0-1.42-7.76,58.59,58.59,0,0,0-4-11.2,30.84,30.84,0,0,0-7.07-9.66,33.3,33.3,0,0,0-9.56-6.12,52.2,52.2,0,0,0-10.92-3.34,72,72,0,0,0-11.09-1.28Q906.63,483,902,483c-3.1,0-6.48.07-10.12.2a72.9,72.9,0,0,0-11.13,1.28,51.31,51.31,0,0,0-10.92,3.34,33.61,33.61,0,0,0-9.51,6.12,30.74,30.74,0,0,0-7.19,9.66,59,59,0,0,0-4,11.35,66.64,66.64,0,0,0-1.39,7.61c-.15,1.26-.29,2.52-.37,3.75-.25,3.73-.37,7.05-.37,9.88q0,3.95.37,9.28A73.56,73.56,0,0,0,849,556.6a51.19,51.19,0,0,0,3.9,11.18,32.74,32.74,0,0,0,7.38,9.82,34.32,34.32,0,0,0,9.51,6.13A53,53,0,0,0,880.71,587c1.47.27,2.94.48,4.41.69V568.35a23.22,23.22,0,0,1-7.9-5.79,23.8,23.8,0,0,1-5.8-12.91,117.77,117.77,0,0,1-.86-13.64c0-1.67,0-3.65.1-6a61.7,61.7,0,0,1,.65-7.31,1.3,1.3,0,0,0,0-.13,38.71,38.71,0,0,1,1.93-7.39,20.32,20.32,0,0,1,3.76-6.39,17.56,17.56,0,0,1,5.52-4.41,31.74,31.74,0,0,1,6.52-2.52,35.15,35.15,0,0,1,6.71-1.07c2.29-.12,4.35-.16,6.18-.16,2.1,0,4.24,0,6.44.16a33.89,33.89,0,0,1,6.51,1.07,27.28,27.28,0,0,1,6.25,2.52,22.77,22.77,0,0,1,5.55,4.41,19,19,0,0,1,4.1,6.47,40.26,40.26,0,0,1,1.93,7.31v0a44.62,44.62,0,0,1,.63,7.26V536a105.09,105.09,0,0,1-.92,13.83,24.22,24.22,0,0,1-13.73,18.5V587.7c1.45-.21,2.9-.41,4.37-.68a56,56,0,0,0,11.09-3.29,31.06,31.06,0,0,0,9.47-6.13q5.61-5.54,9.42-15.58t3.8-26.59C956.88,532.69,956.76,529.51,956.5,525.86Z" transform="translate(-339 -69.34)"/><path d="M606,501.59a23,23,0,0,0-14.65-15.23,34.34,34.34,0,0,0-12.23-2.15H529.88c-16.56,0-16.33,17.52-16.33,17.52h57.78a24.4,24.4,0,0,1,5.7.76,9.79,9.79,0,0,1,5.34,3.73,10.79,10.79,0,0,1,2.48,4.89,25.66,25.66,0,0,1,.47,4.81v48.52a13.67,13.67,0,0,1-.18,2.3,3.47,3.47,0,0,1-1.36,2,4.45,4.45,0,0,1-2.66,1.13c-.94.06-1.76.1-2.46.1H540.1a10,10,0,0,1-4.24-1,11.9,11.9,0,0,1-3.18-2.15,9.54,9.54,0,0,1-2.65-5.65,41.13,41.13,0,0,1-.49-5.86c0-3.73.34-6.38,1-7.94a31.4,31.4,0,0,1,1.58-3.2,7.4,7.4,0,0,1,4.54-3,20.15,20.15,0,0,1,3.84-.54h37.74V523.14h-44.6a48.88,48.88,0,0,0-9,.93,20.71,20.71,0,0,0-9.92,5.18,21.39,21.39,0,0,0-7.27,11.65,61.16,61.16,0,0,0-1.5,13.46c0,2,.08,4.16.2,6.63a44.92,44.92,0,0,0,1.09,7.55,31.52,31.52,0,0,0,2.78,7.52,22.39,22.39,0,0,0,4.9,6.38,17.65,17.65,0,0,0,9.51,4.47,78.64,78.64,0,0,0,9.22.56h56.18a43.52,43.52,0,0,0,7.59-.66,12,12,0,0,0,6.66-3.44,12.68,12.68,0,0,0,3.39-6.63,37.45,37.45,0,0,0,.72-6.58V516.58A45.46,45.46,0,0,0,606,501.59Z" transform="translate(-339 -69.34)"/><path d="M811.36,463.56v97.65c0,.78-.06,1.94-.19,3.58a4.91,4.91,0,0,1-1.53,3.55,4.67,4.67,0,0,1-3.18,1.43c-1.37.12-2.33.21-2.9.21H778.42a36.9,36.9,0,0,1-5.46-.43A25,25,0,0,1,767.2,568a17.33,17.33,0,0,1-5.38-3.47,18.17,18.17,0,0,1-4.23-6.25,48.53,48.53,0,0,1-1.66-6.26q-1.09-4.86-1.11-17a90.63,90.63,0,0,1,.72-12.5,34.17,34.17,0,0,1,.67-3.5,30.17,30.17,0,0,1,3.09-8.17q3.71-6,9.19-7.58a37,37,0,0,1,9.93-1.56h25.83V484.21H774c-2.09,0-4.6.12-7.52.39a45.5,45.5,0,0,0-9.18,1.81A36.53,36.53,0,0,0,747.7,491a31.17,31.17,0,0,0-8.49,8.56,40.06,40.06,0,0,0-6.61,17.09c-.29,2-.52,4-.72,5.92a116,116,0,0,0-.66,11.75,107,107,0,0,0,1.58,20.56A67,67,0,0,0,736.26,567a34.77,34.77,0,0,0,7,10.87,30.67,30.67,0,0,0,17.56,8.92,57.58,57.58,0,0,0,8.51.66h47.6a40.8,40.8,0,0,0,7.46-.73,11,11,0,0,0,6.72-4.5,14.7,14.7,0,0,0,2.37-5.9,34.34,34.34,0,0,0,.77-6.94V447.58S811.36,447.58,811.36,463.56Z" transform="translate(-339 -69.34)"/></svg>