<svg id="Layer_1" data-name="Layer 1" xmlns="http://www.w3.org/2000/svg" xmlns:xlink="http://www.w3.org/1999/xlink" viewBox="0 0 39.97 24.27"><defs><style>.cls-1{fill:#d7282f;}.cls-2{fill:url(#linear-gradient);}.cls-3{fill:url(#linear-gradient-2);}.cls-4{fill:url(#linear-gradient-3);}.cls-5{fill:url(#linear-gradient-4);}.cls-6{fill:url(#linear-gradient-5);}.cls-7{fill:url(#linear-gradient-6);}.cls-8{fill:url(#linear-gradient-7);}</style><linearGradient id="linear-gradient" x1="147.3" y1="117.24" x2="156.45" y2="122.4" gradientTransform="matrix(1, 0, 0, -1, -17.43, 241.8)" gradientUnits="userSpaceOnUse"><stop offset="0" stop-color="#fff" stop-opacity="0"/><stop offset="0.95" stop-color="#fff"/></linearGradient><linearGradient id="linear-gradient-2" x1="157.01" y1="124.29" x2="153.05" y2="119.41" xlink:href="#linear-gradient"/><linearGradient id="linear-gradient-3" x1="-703.41" y1="119.61" x2="-694.26" y2="124.77" gradientTransform="translate(-532.73 241.8) rotate(180)" xlink:href="#linear-gradient"/><linearGradient id="linear-gradient-4" x1="-693.7" y1="126.66" x2="-697.66" y2="121.78" gradientTransform="translate(-532.73 241.8) rotate(180)" xlink:href="#linear-gradient"/><linearGradient id="linear-gradient-5" x1="151.06" y1="130.27" x2="150.44" y2="104.16" gradientTransform="matrix(1, 0, 0, -1, -130.29, 139.22)" xlink:href="#linear-gradient"/><linearGradient id="linear-gradient-6" x1="396.25" y1="-706.54" x2="390.21" y2="-713.95" gradientTransform="matrix(0.67, -0.74, -0.74, -0.67, -770.6, -168.42)" xlink:href="#linear-gradient"/><linearGradient id="linear-gradient-7" x1="160.15" y1="128.45" x2="162.5" y2="130.33" gradientTransform="matrix(1, 0, 0, -1, -130.29, 139.22)" xlink:href="#linear-gradient"/></defs><path class="cls-1" d="M141.83,123.06a8.63,8.63,0,0,0-.36-3.09,4,4,0,0,0-1.92-1.82,13.62,13.62,0,0,0-2.58-.83,57.78,57.78,0,0,1-6.68-2.16c.22,1.56,1.5,2.72,2.69,3.76a2.3,2.3,0,0,0-.76.31.79.79,0,0,0-.33.71,1,1,0,0,0,.31.5,3.85,3.85,0,0,0,1.79,1l-1.83.76a.38.38,0,0,0-.22.15c-.09.14,0,.32.14.43.88.87,2.3.78,3.51.63a4.47,4.47,0,0,0-1.55,1.21.28.28,0,0,0-.09.22c0,.1.15.13.25.14a5.69,5.69,0,0,0,3.18-.47,2.09,2.09,0,0,0-.66.87.28.28,0,0,0,0,.25.24.24,0,0,0,.18.07,3.42,3.42,0,0,0,2.47-.71,1.65,1.65,0,0,0,1.17,1.36,5,5,0,0,0,1.88.12c1.25-.09.5-.81.07-1.34A3.74,3.74,0,0,1,141.83,123.06Z" transform="translate(-130.29 -112.78)"/><path class="cls-2" d="M141.83,123.06a8.63,8.63,0,0,0-.36-3.09,4,4,0,0,0-1.92-1.82,13.62,13.62,0,0,0-2.58-.83,57.78,57.78,0,0,1-6.68-2.16c.22,1.56,1.5,2.72,2.69,3.76a2.3,2.3,0,0,0-.76.31.79.79,0,0,0-.33.71,1,1,0,0,0,.31.5,3.85,3.85,0,0,0,1.79,1l-1.83.76a.38.38,0,0,0-.22.15c-.09.14,0,.32.14.43.88.87,2.3.78,3.51.63a4.47,4.47,0,0,0-1.55,1.21.28.28,0,0,0-.09.22c0,.1.15.13.25.14a5.69,5.69,0,0,0,3.18-.47,2.09,2.09,0,0,0-.66.87.28.28,0,0,0,0,.25.24.24,0,0,0,.18.07,3.42,3.42,0,0,0,2.47-.71,1.65,1.65,0,0,0,1.17,1.36,5,5,0,0,0,1.88.12c1.25-.09.5-.81.07-1.34A3.74,3.74,0,0,1,141.83,123.06Z" transform="translate(-130.29 -112.78)"/><path class="cls-1" d="M140,123a5.94,5.94,0,0,0-.25-2.11,2.72,2.72,0,0,0-1.32-1.25,9,9,0,0,0-1.75-.57,36.88,36.88,0,0,1-4.57-1.48,4.55,4.55,0,0,0,1.83,2.57,1.7,1.7,0,0,0-.5.22.51.51,0,0,0-.22.48.61.61,0,0,0,.21.34,2.66,2.66,0,0,0,1.22.69l-1.25.51a.36.36,0,0,0-.16.11c-.05.1,0,.22.1.3a2.91,2.91,0,0,0,2.41.42,3.18,3.18,0,0,0-1.06.83.2.2,0,0,0-.06.15c0,.07.1.09.17.1a3.86,3.86,0,0,0,2.17-.33,1.47,1.47,0,0,0-.45.6c0,.06-.05.13,0,.18a.18.18,0,0,0,.12.05,2.38,2.38,0,0,0,1.69-.49,1.12,1.12,0,0,0,.8.93,3.25,3.25,0,0,0,1.28.08c.87-.06.34-.55.05-.92A2.52,2.52,0,0,1,140,123Z" transform="translate(-130.29 -112.78)"/><path class="cls-3" d="M140,123a5.94,5.94,0,0,0-.25-2.11,2.72,2.72,0,0,0-1.32-1.25,9,9,0,0,0-1.75-.57,36.88,36.88,0,0,1-4.57-1.48,4.55,4.55,0,0,0,1.83,2.57,1.7,1.7,0,0,0-.5.22.51.51,0,0,0-.22.48.61.61,0,0,0,.21.34,2.66,2.66,0,0,0,1.22.69l-1.25.51a.36.36,0,0,0-.16.11c-.05.1,0,.22.1.3a2.91,2.91,0,0,0,2.41.42,3.18,3.18,0,0,0-1.06.83.2.2,0,0,0-.06.15c0,.07.1.09.17.1a3.86,3.86,0,0,0,2.17-.33,1.47,1.47,0,0,0-.45.6c0,.06-.05.13,0,.18a.18.18,0,0,0,.12.05,2.38,2.38,0,0,0,1.69-.49,1.12,1.12,0,0,0,.8.93,3.25,3.25,0,0,0,1.28.08c.87-.06.34-.55.05-.92A2.52,2.52,0,0,1,140,123Z" transform="translate(-130.29 -112.78)"/><path class="cls-1" d="M158.72,120.69a8.61,8.61,0,0,1,.36-3.09,4,4,0,0,1,1.92-1.83,13.59,13.59,0,0,1,2.58-.82,57.83,57.83,0,0,0,6.68-2.17c-.22,1.56-1.49,2.73-2.69,3.76a2.32,2.32,0,0,1,.76.32.76.76,0,0,1,.33.7,1,1,0,0,1-.31.51,3.84,3.84,0,0,1-1.79,1l1.83.75a.46.46,0,0,1,.23.16c.08.14,0,.32-.15.43-.88.86-2.29.77-3.52.62a4.59,4.59,0,0,1,1.55,1.21.27.27,0,0,1,.08.22c0,.1-.14.13-.25.15a5.67,5.67,0,0,1-3.17-.47,2.11,2.11,0,0,1,.66.87.23.23,0,0,1,0,.25.24.24,0,0,1-.18.07,3.47,3.47,0,0,1-2.47-.71A1.63,1.63,0,0,1,160,124a4.59,4.59,0,0,1-1.88.12c-1.26-.08-.5-.81-.07-1.34A3.62,3.62,0,0,0,158.72,120.69Z" transform="translate(-130.29 -112.78)"/><path class="cls-4" d="M158.72,120.69a8.61,8.61,0,0,1,.36-3.09,4,4,0,0,1,1.92-1.83,13.59,13.59,0,0,1,2.58-.82,57.83,57.83,0,0,0,6.68-2.17c-.22,1.56-1.49,2.73-2.69,3.76a2.32,2.32,0,0,1,.76.32.76.76,0,0,1,.33.7,1,1,0,0,1-.31.51,3.84,3.84,0,0,1-1.79,1l1.83.75a.46.46,0,0,1,.23.16c.08.14,0,.32-.15.43-.88.86-2.29.77-3.52.62a4.59,4.59,0,0,1,1.55,1.21.27.27,0,0,1,.08.22c0,.1-.14.13-.25.15a5.67,5.67,0,0,1-3.17-.47,2.11,2.11,0,0,1,.66.87.23.23,0,0,1,0,.25.24.24,0,0,1-.18.07,3.47,3.47,0,0,1-2.47-.71A1.63,1.63,0,0,1,160,124a4.59,4.59,0,0,1-1.88.12c-1.26-.08-.5-.81-.07-1.34A3.62,3.62,0,0,0,158.72,120.69Z" transform="translate(-130.29 -112.78)"/><path class="cls-1" d="M160.58,120.61a5.94,5.94,0,0,1,.25-2.11,2.67,2.67,0,0,1,1.32-1.25,9,9,0,0,1,1.75-.57,38.64,38.64,0,0,0,4.57-1.48,4.59,4.59,0,0,1-1.84,2.57,1.62,1.62,0,0,1,.51.21.53.53,0,0,1,.22.48.66.66,0,0,1-.21.35,2.64,2.64,0,0,1-1.22.68l1.25.52a.33.33,0,0,1,.15.11c.06.09,0,.22-.1.29a2.89,2.89,0,0,1-2.4.43,3,3,0,0,1,1,.83.14.14,0,0,1,.06.15c0,.06-.1.09-.16.1a3.86,3.86,0,0,1-2.17-.33,1.49,1.49,0,0,1,.45.6.17.17,0,0,1,0,.17.13.13,0,0,1-.13,0,2.4,2.4,0,0,1-1.69-.48,1.08,1.08,0,0,1-.79.92,3.31,3.31,0,0,1-1.29.09c-.86-.06-.33-.56,0-.92A2.52,2.52,0,0,0,160.58,120.61Z" transform="translate(-130.29 -112.78)"/><path class="cls-5" d="M160.58,120.61a5.94,5.94,0,0,1,.25-2.11,2.67,2.67,0,0,1,1.32-1.25,9,9,0,0,1,1.75-.57,38.64,38.64,0,0,0,4.57-1.48,4.59,4.59,0,0,1-1.84,2.57,1.62,1.62,0,0,1,.51.21.53.53,0,0,1,.22.48.66.66,0,0,1-.21.35,2.64,2.64,0,0,1-1.22.68l1.25.52a.33.33,0,0,1,.15.11c.06.09,0,.22-.1.29a2.89,2.89,0,0,1-2.4.43,3,3,0,0,1,1,.83.14.14,0,0,1,.06.15c0,.06-.1.09-.16.1a3.86,3.86,0,0,1-2.17-.33,1.49,1.49,0,0,1,.45.6.17.17,0,0,1,0,.17.13.13,0,0,1-.13,0,2.4,2.4,0,0,1-1.69-.48,1.08,1.08,0,0,1-.79.92,3.31,3.31,0,0,1-1.29.09c-.86-.06-.33-.56,0-.92A2.52,2.52,0,0,0,160.58,120.61Z" transform="translate(-130.29 -112.78)"/><rect class="cls-1" x="141.41" y="124.47" width="18.89" height="11.64" transform="translate(-142.9 -96.56) rotate(-5.91)"/><polygon class="cls-6" points="30.56 22.33 11.77 24.27 10.57 12.69 29.7 10.56 30.56 22.33"/><polygon class="cls-7" points="10.57 12.69 20.99 21.28 29.45 10.91 10.57 12.69"/><circle class="cls-1" cx="29.94" cy="10.63" r="2.63"/><circle class="cls-8" cx="29.99" cy="10.66" r="2.63"/></svg>