<svg id="Layer_1" data-name="Layer 1" xmlns="http://www.w3.org/2000/svg" viewBox="0 0 731.98 596.93"><defs><style>.cls-1{fill:#d7282f;}.cls-2{fill:#f4b223;}.cls-3{fill:#fff;}.cls-4{fill:#96262c;}.cls-5{fill:#ff9e18;}.cls-6{fill:#bbbdbf;}</style></defs><path class="cls-1" d="M398,226.38c2.72,12.36-.32,13.55-6.71,2.62L304.44,81.34c-6.42-10.92-1.35-20.78,11.25-21.92l21.88-2c12.58-1.12,25.12,8.06,27.81,20.4Z" transform="translate(-0.05 -0.04)"/><path class="cls-2" d="M572.1,295.66c-2.71,35.19-39.56,76.52-86.84,9.77C433.77,232.66,412,135.32,401.67,90.33c-6.88-30.12,1-42.6,8.64-44.13,39-7.82,36.62,31.19,45.14,63.34,59,224,109.79,235.66,116.91,162.91a219.15,219.15,0,0,1-.26,23.21" transform="translate(-0.05 -0.04)"/><path class="cls-3" d="M160.18,44.66c3.38-35.12,41-75.78,87-8.14,50.12,73.66,70.11,171.41,79.56,216.62,6.32,30.21-1.75,42.53-9.45,43.95-39.12,7.1-36-31.89-43.94-64.2C218.49,7.89,168-4.77,159.47,67.89a230.29,230.29,0,0,1,.69-23.2" transform="translate(-0.05 -0.04)"/><path class="cls-4" d="M324.75,74.12c-4.84-10.26-25.9-5.13-21.55,4.75.28.57.52,1.07.73,1.48s.32.66.51,1L391.31,229c.36.65.7,1.2,1,1.74.13.2.25.39.35.58s.44.61.63.9.29.42.43.61.28.41.43.61.33.4.48.61a1.71,1.71,0,0,1,.21.26A9,9,0,0,0,396.6,236v0a2.16,2.16,0,0,0,.51.29h0a29.93,29.93,0,0,0-2.53-7.47S342.87,112.5,324.75,74.12Z" transform="translate(-0.05 -0.04)"/><path class="cls-5" d="M540.15,340.35c-21.31,4.53-69.55-51.84-107.62-205.64-11.27-45.55-7.81-73.06-31.35-79.16-2.64,7-3.31,18.21.49,34.78,10.3,45,32.1,142.33,83.59,215.07C506.33,335.15,525.32,343.4,540.15,340.35Z" transform="translate(-0.05 -0.04)"/><path class="cls-6" d="M338.72,553.8c0,4.36-2.45,7.34-7.27,9,4.82,1.57,7.27,4.74,7.27,9.5v2.61q0,11.9-18.75,11.89H286.68c-1.93,0-2.89-.9-2.89-2.81s1-2.78,2.89-2.78h34.48c7,0,10.54-2,10.54-5.93v-4.54c0-3.2-3.45-4.82-10.3-4.82H286.68q-3,0-3-2.76a2.67,2.67,0,0,1,3-2.93h34.79c6.81,0,10.23-1.68,10.23-5.05v-4.52q0-4.81-10.45-4.81H286.5c-2,0-3-.94-3-2.78s1-2.8,3-2.8h32.91q19.3,0,19.31,10.75Z" transform="translate(-0.05 -0.04)"/><path class="cls-6" d="M430.68,586.83c-10.43,0-15.66-3.27-15.66-9.87V542.84c0-1.89,1.15-2.83,3.45-2.84s3.58,1,3.58,2.84V577c0,2.86,2.74,4.28,8.27,4.28h33c1.73,0,2.63,1,2.63,3a2.32,2.32,0,0,1-2,2.59,2.15,2.15,0,0,1-.62,0Z" transform="translate(-0.05 -0.04)"/><path class="cls-6" d="M583.2,577.66c0,6.14-5,9.21-14.91,9.21H537.47c-1.77,0-2.63-.94-2.63-2.84s.86-2.75,2.63-2.75h31.66c4.71,0,7.06-1.85,7.06-5.52v-5.4c0-3.07-2.92-4.62-8.9-4.62h-18.9q-15.66,0-15.65-8.3v-7.65c0-6.34,4.48-9.48,13.47-9.48h11.43c1.76,0,2.63,1,2.63,2.85s-.87,2.73-2.63,2.73H545.12c-3.64,0-5.49,1.45-5.49,4.35v6.53c0,2.35,2.53,3.49,7.59,3.49h19.24c11.19,0,16.74,3.15,16.74,9.43Z" transform="translate(-0.05 -0.04)"/><path class="cls-6" d="M679,545.57q-14.91,0-14.91,7.74v30.61c0,1.91-1.16,2.86-3.52,2.86s-3.31-1-3.31-2.86V552.8c0-8.55,7.59-12.8,22.88-12.8h29.1c14.47,0,21.67,4.25,21.67,12.8v31.12c0,1.91-1.16,2.86-3.46,2.86s-3.56-1-3.56-2.86V553.37q0-7.79-13.66-7.8Zm12.25,5.55q0-2.94,3.4-2.94c2.36,0,3.49,1,3.49,2.94v32.47c0,2.34-1.13,3.46-3.49,3.46s-3.4-1.12-3.4-3.46Z" transform="translate(-0.05 -0.04)"/><path class="cls-6" d="M561.4,595.66a1.31,1.31,0,0,1-1.31,1.31h-7.35a1.32,1.32,0,0,1-1.33-1.31h0v-3.94a1.31,1.31,0,0,1,1.33-1.3h7.34a1.31,1.31,0,0,1,1.32,1.3h0Z" transform="translate(-0.05 -0.04)"/><path class="cls-6" d="M622.17,542.84c0-1.89-1.13-2.84-3.41-2.84s-3.63,1-3.63,2.84v7.24h7Z" transform="translate(-0.05 -0.04)"/><path class="cls-6" d="M615.13,584.24c0,1.87,1.19,2.81,3.5,2.81s3.54-.94,3.54-2.81V553.93h-7Z" transform="translate(-0.05 -0.04)"/><path class="cls-6" d="M500.51,542.91c0-1.91-1.13-2.88-3.37-2.88-2.44,0-3.64,1-3.64,2.88v7.22h7Z" transform="translate(-0.05 -0.04)"/><path class="cls-6" d="M493.5,584.29c0,1.86,1.15,2.81,3.47,2.81s3.54-1,3.54-2.81V554h-7Z" transform="translate(-0.05 -0.04)"/><path class="cls-6" d="M381,542.77c0-1.91-1.14-2.89-3.39-2.89-2.42,0-3.64,1-3.64,2.89V550h7Z" transform="translate(-0.05 -0.04)"/><path class="cls-6" d="M374,584.12c0,1.86,1.17,2.83,3.47,2.83s3.56-1,3.56-2.83V553.8h-7Z" transform="translate(-0.05 -0.04)"/><path class="cls-1" d="M563,501.79a57.85,57.85,0,0,1-10-.92V519c3.6.2,6.93.28,10,.28s6.29-.08,9.93-.29v-18.1A57,57,0,0,1,563,501.79Z" transform="translate(-0.05 -0.04)"/><path class="cls-3" d="M144.68,423.07a27.67,27.67,0,0,0-13.18-6.68,68.82,68.82,0,0,0-13.19-1.52H18.46a36.58,36.58,0,0,0-8,1.07A12.18,12.18,0,0,0,3,421.06,13.76,13.76,0,0,0,.53,427.2a43.15,43.15,0,0,0-.48,5.57v85.36H22.91V439.42a19.14,19.14,0,0,1,.28-4,3.29,3.29,0,0,1,.66-1.46,6.8,6.8,0,0,1,1.43-1,8.11,8.11,0,0,1,3.61-.56H65.64v85.74H88.47V432.39h24.67a38.35,38.35,0,0,1,7,.76,11.78,11.78,0,0,1,6.74,4.1,15.08,15.08,0,0,1,3.56,7.23,38.79,38.79,0,0,1,.82,7.44v66.21H154V448.39A42.51,42.51,0,0,0,151.59,434,28.48,28.48,0,0,0,144.68,423.07Z" transform="translate(-0.05 -0.04)"/><path class="cls-3" d="M336.22,468.9a9.48,9.48,0,0,1-1.49-4.9,8.33,8.33,0,0,1,1-4.23,16.52,16.52,0,0,1,2.38-3.2l3.11-3.37,42.48-38.33H356.1l-36.94,34.25c-1,1.22-2.09,2.57-3.21,4.08-.48.69-1,1.36-1.48,2.09-1.69,2.39-2.52,5.52-2.52,9.45a17.22,17.22,0,0,0,2.42,9.34,43,43,0,0,0,4.61,6.28l41.4,37.77h28.35L339.6,473.51A36.11,36.11,0,0,1,336.22,468.9Z" transform="translate(-0.05 -0.04)"/><path class="cls-3" d="M283.42,453.2v64.93h22.87V377.29s-22.87,0-22.87,16Z" transform="translate(-0.05 -0.04)"/><path class="cls-3" d="M730.81,482.36a21.35,21.35,0,0,0-5-9.43,27.56,27.56,0,0,0-10.18-6.52q-6.28-2.42-15.61-5.2l-29-6.27a17.63,17.63,0,0,1-2.76-.76c-.9-.29-1.85-.62-2.82-1-.25-.08-.49-.16-.74-.26-1.25-.45-2.45-.92-3.63-1.46a13,13,0,0,1-2.91-1.78,7.55,7.55,0,0,1-2.84-3.83,17.14,17.14,0,0,1-.48-4.16,20.11,20.11,0,0,1,.38-3.95,6.05,6.05,0,0,1,2.47-3.47,8,8,0,0,1,4.06-1.72c1.36-.12,2.67-.18,3.94-.18h61.68v-17.5h-65.1c-2.22,0-4.48.08-6.76.2a35,35,0,0,0-6.67,1,22.36,22.36,0,0,0-6.14,2.72,20.38,20.38,0,0,0-5.27,5,22.54,22.54,0,0,0-3.95,8.95,40.27,40.27,0,0,0,0,17.14,20.11,20.11,0,0,0,1,3.29,23.68,23.68,0,0,0,3,5.64,25.59,25.59,0,0,0,8.8,7.34,61,61,0,0,0,13.85,5.13l26.73,5.52c3.63,1,6.56,1.87,8.77,2.52s4,1.25,5.38,1.78a27,27,0,0,1,3,1.23,8.41,8.41,0,0,1,1.62,1,7.75,7.75,0,0,1,2.38,3.78,16.33,16.33,0,0,1,.47,4c0,.82-.06,1.87-.18,3.1a5.53,5.53,0,0,1-1.72,3.37,7.07,7.07,0,0,1-3.75,2.44,17.42,17.42,0,0,1-3.87.52H634V518h72.9a53.53,53.53,0,0,0,8.19-.66,18.23,18.23,0,0,0,8.38-3.6,25,25,0,0,0,5.75-7.54c1.86-3.39,2.81-8.23,2.81-14.46A43.26,43.26,0,0,0,730.81,482.36Z" transform="translate(-0.05 -0.04)"/><path class="cls-3" d="M617.5,456.52c-.06-1.08-.19-2.2-.33-3.32a68.27,68.27,0,0,0-1.42-7.76,58.61,58.61,0,0,0-4-11.2,30.91,30.91,0,0,0-7.07-9.66,33.4,33.4,0,0,0-9.56-6.12,52.2,52.2,0,0,0-10.92-3.34,72.59,72.59,0,0,0-11.09-1.28q-5.48-.18-10.11-.18c-3.1,0-6.48.07-10.12.2a73,73,0,0,0-11.13,1.28,50.87,50.87,0,0,0-10.92,3.34,33.72,33.72,0,0,0-9.51,6.12,30.77,30.77,0,0,0-7.19,9.66,58.64,58.64,0,0,0-4,11.35,67.84,67.84,0,0,0-1.39,7.61c-.15,1.26-.29,2.52-.37,3.75-.25,3.73-.37,7-.37,9.88,0,2.63.12,5.73.37,9.28A73.2,73.2,0,0,0,510,487.26a51,51,0,0,0,3.9,11.18,32.74,32.74,0,0,0,7.38,9.82,34.12,34.12,0,0,0,9.51,6.13,52.61,52.61,0,0,0,10.92,3.27c1.47.27,2.94.48,4.41.69V499a23.2,23.2,0,0,1-7.9-5.79,23.81,23.81,0,0,1-5.8-12.91,117.39,117.39,0,0,1-.86-13.64c0-1.67,0-3.65.1-6a61.64,61.64,0,0,1,.65-7.31v-.13a38.45,38.45,0,0,1,1.93-7.39,20.4,20.4,0,0,1,3.76-6.39,17.5,17.5,0,0,1,5.52-4.41,31.65,31.65,0,0,1,6.52-2.52,35.41,35.41,0,0,1,6.71-1.07c2.29-.12,4.35-.16,6.18-.16,2.1,0,4.24,0,6.44.16a33.38,33.38,0,0,1,6.51,1.07,27.1,27.1,0,0,1,6.25,2.52,22.77,22.77,0,0,1,5.55,4.41,19,19,0,0,1,4.1,6.47,40.17,40.17,0,0,1,1.93,7.31h0a44.21,44.21,0,0,1,.63,7.26v6.17a104.76,104.76,0,0,1-.92,13.83A24.23,24.23,0,0,1,579.69,499v19.37c1.45-.21,2.9-.41,4.37-.68a55.65,55.65,0,0,0,11.09-3.29,31.28,31.28,0,0,0,9.47-6.13q5.61-5.53,9.42-15.58t3.8-26.59C617.88,463.35,617.76,460.17,617.5,456.52Z" transform="translate(-0.05 -0.04)"/><path class="cls-3" d="M267,432.25A23,23,0,0,0,252.35,417a34.49,34.49,0,0,0-12.23-2.15H190.88c-16.56,0-16.33,17.52-16.33,17.52h57.78a24.36,24.36,0,0,1,5.7.76,9.79,9.79,0,0,1,5.34,3.73,10.8,10.8,0,0,1,2.48,4.89,26,26,0,0,1,.47,4.81V495.1a14.76,14.76,0,0,1-.18,2.3,3.46,3.46,0,0,1-1.36,2,4.47,4.47,0,0,1-2.66,1.13c-.94.06-1.76.1-2.46.1H201.1a10,10,0,0,1-4.24-1,12,12,0,0,1-3.18-2.15,9.51,9.51,0,0,1-2.65-5.65,41.12,41.12,0,0,1-.49-5.86c0-3.73.34-6.38,1-7.94a31.67,31.67,0,0,1,1.58-3.2,7.42,7.42,0,0,1,4.54-3,20.77,20.77,0,0,1,3.84-.54h37.74V453.8h-44.6a48.56,48.56,0,0,0-9,.93,20.72,20.72,0,0,0-9.92,5.18,21.39,21.39,0,0,0-7.27,11.65A61,61,0,0,0,167,485c0,2,.08,4.16.2,6.63a44.76,44.76,0,0,0,1.09,7.55,31.63,31.63,0,0,0,2.78,7.52,22.11,22.11,0,0,0,4.9,6.38,17.65,17.65,0,0,0,9.51,4.47,79,79,0,0,0,9.22.56h56.18a44,44,0,0,0,7.59-.66,12,12,0,0,0,6.66-3.44,12.65,12.65,0,0,0,3.39-6.63,38.29,38.29,0,0,0,.72-6.58V447.24A45.66,45.66,0,0,0,267,432.25Z" transform="translate(-0.05 -0.04)"/><path class="cls-3" d="M472.36,394.22v97.65c0,.78-.06,1.94-.19,3.58a4.91,4.91,0,0,1-1.53,3.55,4.69,4.69,0,0,1-3.18,1.43c-1.37.12-2.33.21-2.9.21H439.42a37,37,0,0,1-5.46-.43,24.9,24.9,0,0,1-5.76-1.55,17.31,17.31,0,0,1-5.38-3.47,18.16,18.16,0,0,1-4.23-6.25,48.5,48.5,0,0,1-1.66-6.26q-1.1-4.86-1.11-17a90.09,90.09,0,0,1,.72-12.5,34.3,34.3,0,0,1,.67-3.5,30.25,30.25,0,0,1,3.09-8.17q3.7-6,9.19-7.58a37.09,37.09,0,0,1,9.93-1.56h25.83v-17.5H435c-2.09,0-4.6.12-7.52.39a45.63,45.63,0,0,0-9.18,1.81,36.41,36.41,0,0,0-9.6,4.59,31.16,31.16,0,0,0-8.49,8.56,40.08,40.08,0,0,0-6.61,17.09c-.29,2-.52,4-.72,5.92a115.19,115.19,0,0,0-.66,11.75,106.52,106.52,0,0,0,1.58,20.56,67.08,67.08,0,0,0,3.46,12.12,34.7,34.7,0,0,0,7,10.87,30.68,30.68,0,0,0,17.56,8.92,57.76,57.76,0,0,0,8.51.66h47.6a40.65,40.65,0,0,0,7.46-.73,11,11,0,0,0,6.72-4.5,14.69,14.69,0,0,0,2.37-5.9,34.47,34.47,0,0,0,.77-6.94V378.24S472.36,378.24,472.36,394.22Z" transform="translate(-0.05 -0.04)"/></svg>