<svg id="Layer_1" data-name="Layer 1" xmlns="http://www.w3.org/2000/svg" xmlns:xlink="http://www.w3.org/1999/xlink" viewBox="0 0 80.13 74.46"><defs><style>.cls-1{fill:none;}.cls-2,.cls-7{fill:#d7282f;}.cls-3{fill:url(#linear-gradient);}.cls-4{fill:url(#linear-gradient-2);}.cls-5{fill:url(#linear-gradient-3);}.cls-6{fill:url(#linear-gradient-4);}.cls-7{opacity:0.24;isolation:isolate;}.cls-8{clip-path:url(#clip-path);}.cls-9{fill:url(#linear-gradient-5);}.cls-10{fill:url(#linear-gradient-6);}.cls-11{fill:url(#linear-gradient-7);}.cls-12{fill:url(#linear-gradient-8);}</style><linearGradient id="linear-gradient" x1="267.92" y1="15.62" x2="267.45" y2="56.58" gradientTransform="matrix(0, 1, 1, 0, 237.96, -45.56)" gradientUnits="userSpaceOnUse"><stop offset="0" stop-color="#010101" stop-opacity="0"/><stop offset="0.95" stop-color="#010101"/></linearGradient><linearGradient id="linear-gradient-2" x1="237.69" y1="62.61" x2="255.04" y2="62.61" gradientTransform="matrix(1, 0, 0, -1, 0, 252)" xlink:href="#linear-gradient"/><linearGradient id="linear-gradient-3" x1="288" y1="67.23" x2="284.85" y2="13.77" gradientTransform="matrix(1, 0, 0, -1, -17.43, 241.8)" xlink:href="#linear-gradient"/><linearGradient id="linear-gradient-4" x1="237.8" y1="52.45" x2="238.19" y2="45.77" gradientTransform="matrix(1, 0, 0, -1, 0, 252)" xlink:href="#linear-gradient"/><clipPath id="clip-path" transform="translate(-219 -175)"><path class="cls-1" d="M234.59,200.3,255.07,204V185.27a8.68,8.68,0,0,0-8.68-8.67h0c-4.79,0-9.4,4.82-9.4,9.61Z"/></clipPath><linearGradient id="linear-gradient-5" x1="404.07" y1="-648.66" x2="389.77" y2="-661.89" gradientTransform="matrix(0.84, -0.54, -0.54, -0.84, -650.03, -319.42)" gradientUnits="userSpaceOnUse"><stop offset="0" stop-color="#fff" stop-opacity="0"/><stop offset="0.95" stop-color="#fff"/></linearGradient><linearGradient id="linear-gradient-6" x1="402.86" y1="-648.58" x2="396.15" y2="-656.83" xlink:href="#linear-gradient-5"/><linearGradient id="linear-gradient-7" x1="402.45" y1="-639.36" x2="392.01" y2="-649.03" xlink:href="#linear-gradient-5"/><linearGradient id="linear-gradient-8" x1="401.57" y1="-639.3" x2="396.66" y2="-645.32" xlink:href="#linear-gradient-5"/></defs><rect class="cls-2" x="44.83" y="17.9" width="7.86" height="48.5"/><rect class="cls-3" x="248.56" y="218.27" width="38.4" height="7.86" transform="translate(-176.21 312.63) rotate(-89.4)"/><path class="cls-2" d="M290.18,185v19.21H236.3V185a10,10,0,0,1,10-10h33.83A10,10,0,0,1,290.18,185Z" transform="translate(-219 -175)"/><path class="cls-4" d="M246.37,175.67h0a8.67,8.67,0,0,1,8.67,8.67h0v18.78H237.69V184.34A8.68,8.68,0,0,1,246.37,175.67Z" transform="translate(-219 -175)"/><path class="cls-5" d="M290.18,185v19.22H257V183.89a11.43,11.43,0,0,0-7.81-8.88h31A10,10,0,0,1,290.18,185Z" transform="translate(-219 -175)"/><path class="cls-2" d="M220.38,201.47H255.6a1.38,1.38,0,0,1,1.38,1.38h0a1.38,1.38,0,0,1-1.38,1.38H220.38a1.38,1.38,0,0,1-1.38-1.38h0A1.38,1.38,0,0,1,220.38,201.47Z" transform="translate(-219 -175)"/><path class="cls-6" d="M220.38,201.47H255.6a1.38,1.38,0,0,1,1.38,1.38h0a1.38,1.38,0,0,1-1.38,1.38H220.38a1.38,1.38,0,0,1-1.38-1.38h0A1.38,1.38,0,0,1,220.38,201.47Z" transform="translate(-219 -175)"/><path class="cls-7" d="M246.93,237.14c-4.58.82-9.12,1.88-13.74,2.33-3,.29-6.33.44-8.5,2.53a2.83,2.83,0,0,0-1,1.73c-.13,1.45,1.38,2.46,2.74,3A40.9,40.9,0,0,0,238.91,249c6.89.44,13.8.45,20.7.45l20.57,0c6.07,0,12.81-.25,17.16-4.48a5.41,5.41,0,0,0,1.77-3.08c.24-1.93-1.23-3.75-3-4.55-3.07-1.4-7.66-1.11-11-1.48q-6.53-.72-13.1-.8A133.45,133.45,0,0,0,246.93,237.14Z" transform="translate(-219 -175)"/><path class="cls-2" d="M275.76,180.93c-.08.25-.31,1-.36,1.26l-.73,2.73a1.12,1.12,0,0,0-.05.36.28.28,0,0,0,.25.31h.05a1.38,1.38,0,0,0,.78-.31,3,3,0,0,0,1-2.31,3.08,3.08,0,0,0-1.41-2.67,4.29,4.29,0,0,0-2.19-.51,4.1,4.1,0,0,0-4.4,4.14,3.76,3.76,0,0,0,4.09,3.9,6.61,6.61,0,0,0,1.87-.27,5.44,5.44,0,0,0,1.38-.65l.74,1.08a5.76,5.76,0,0,1-1.53.71,8.86,8.86,0,0,1-2.6.39,5.48,5.48,0,0,1-4.05-1.46,5,5,0,0,1-1.42-3.62,5.25,5.25,0,0,1,1.5-3.83,6,6,0,0,1,4.51-1.68c2.85,0,4.89,1.84,4.89,4.4a4.14,4.14,0,0,1-1.17,3,3.29,3.29,0,0,1-2.29,1,1.19,1.19,0,0,1-1.05-.48.7.7,0,0,1-.11-.37,2,2,0,0,1-1.65.77c-1.21,0-2-.91-2-2.31,0-2.07,1.36-3.79,3-3.79a1.36,1.36,0,0,1,1.36.69l.12-.43Zm-2.53,3.64a4.56,4.56,0,0,0,.49-1.88c0-.51-.28-.85-.71-.85a1.46,1.46,0,0,0-1.2.88,4.25,4.25,0,0,0-.49,1.85c0,.65.24,1,.71,1S272.92,185.2,273.23,184.57Z" transform="translate(-219 -175)"/><g class="cls-8"><rect class="cls-2" x="249.3" y="184.51" width="12.95" height="21.01" transform="translate(-198.24 239.61) rotate(-80.38)"/><polygon class="cls-9" points="46.04 28.16 25.33 24.65 27.5 11.88 48.63 15.3 46.04 28.16"/><polygon class="cls-10" points="27.5 11.88 36.1 24.19 48.25 15.6 27.5 11.88"/><rect class="cls-2" x="245.34" y="177.85" width="9.46" height="15.35" transform="translate(-193.63 226.07) rotate(-80.38)"/><polygon class="cls-11" points="37.84 16.47 22.71 13.91 24.3 4.58 39.73 7.07 37.84 16.47"/><polygon class="cls-12" points="24.3 4.58 30.58 13.57 39.46 7.29 24.3 4.58"/></g></svg>