<svg id="Layer_1" data-name="Layer 1" xmlns="http://www.w3.org/2000/svg" xmlns:xlink="http://www.w3.org/1999/xlink" viewBox="0 0 183.65 61.91"><defs><style>.cls-1{fill:#d7282f;}.cls-2{fill:url(#linear-gradient);}.cls-3{fill:url(#linear-gradient-2);}.cls-4{fill:url(#linear-gradient-3);}.cls-5{fill:url(#linear-gradient-4);}</style><linearGradient id="linear-gradient" x1="181.15" y1="90.17" x2="191.13" y2="157.76" gradientTransform="matrix(1, 0, 0, -1, -58.65, 149.67)" gradientUnits="userSpaceOnUse"><stop offset="0" stop-color="#fff" stop-opacity="0"/><stop offset="0.95" stop-color="#fff"/></linearGradient><linearGradient id="linear-gradient-2" x1="184.56" y1="108.28" x2="189.07" y2="172.23" gradientTransform="matrix(1, 0, 0, -1, -58.65, 149.67)" gradientUnits="userSpaceOnUse"><stop offset="0" stop-color="#010101" stop-opacity="0"/><stop offset="0.95" stop-color="#010101"/></linearGradient><linearGradient id="linear-gradient-3" x1="182.01" y1="155.53" x2="174.92" y2="102.1" xlink:href="#linear-gradient"/><linearGradient id="linear-gradient-4" x1="150.96" y1="137.09" x2="149.68" y2="78.5" gradientTransform="matrix(1, 0, 0, -1, -58.65, 149.67)" gradientUnits="userSpaceOnUse"><stop offset="0" stop-color="#fff" stop-opacity="0"/><stop offset="0.39" stop-color="#fff"/></linearGradient></defs><polygon class="cls-1" points="177.93 31.11 88.87 61.91 75.25 32.53 177.93 31.11"/><polygon class="cls-2" points="177.93 31.11 88.87 61.91 75.25 32.53 177.93 31.11"/><polygon class="cls-3" points="79.78 42.69 157.36 37.54 177.93 31.11 75.25 32.53 79.78 42.69"/><polygon class="cls-1" points="57.26 0 183.65 32.04 73.71 18.92 57.26 0"/><polygon class="cls-1" points="0 37.59 73.71 18.92 183.65 32.04 0 37.59"/><polygon class="cls-4" points="57.26 0 183.65 32.04 73.71 18.92 57.26 0"/><polygon class="cls-5" points="0 37.59 73.71 18.92 183.65 32.04 0 37.59"/></svg>