<svg id="Layer_1" data-name="Layer 1" xmlns="http://www.w3.org/2000/svg" viewBox="0 0 286.44 83"><defs><style>.cls-1{fill:#d7282f;}.cls-2{fill:#f4b223;}.cls-3{fill:#fff;}.cls-4{fill:#96262c;}.cls-5{fill:#ff9e18;}.cls-6{fill:#bbbdbf;}</style></defs><path class="cls-1" d="M63.42,138.1c.66,3-.08,3.3-1.64.64L40.64,102.79c-1.56-2.66-.33-5.06,2.74-5.34L48.71,97a6.55,6.55,0,0,1,6.77,5Z" transform="translate(-5.34 -83)"/><path class="cls-2" d="M105.8,155c-.66,8.56-9.63,18.62-21.14,2.37C72.12,139.63,66.82,115.93,64.31,105c-1.68-7.33.24-10.37,2.1-10.74,9.5-1.91,8.92,7.59,11,15.42,14.37,54.53,26.73,57.37,28.46,39.66a53.28,53.28,0,0,1-.06,5.65" transform="translate(-5.34 -83)"/><path class="cls-3" d="M5.52,93.86c.82-8.55,10-18.45,21.18-2,12.2,17.93,17.07,41.73,19.37,52.73,1.54,7.36-.43,10.36-2.3,10.7-9.53,1.73-8.77-7.76-10.7-15.63C19.72,84.91,7.41,81.83,5.35,99.52a56,56,0,0,1,.17-5.65" transform="translate(-5.34 -83)"/><path class="cls-4" d="M45.58,101c-1.17-2.49-6.3-1.25-5.24,1.16.07.14.12.26.18.36a2.68,2.68,0,0,0,.12.24l21.15,36,.24.42.09.15s.1.14.15.21l.1.15.11.15.12.15,0,.06a1.87,1.87,0,0,0,.43.41h0a.47.47,0,0,0,.12.07h0a7.38,7.38,0,0,0-.62-1.82S50,110.38,45.58,101Z" transform="translate(-5.34 -83)"/><path class="cls-5" d="M98,165.85c-5.19,1.1-16.93-12.62-26.2-50.07-2.74-11.09-1.9-17.78-7.63-19.27-.64,1.71-.81,4.44.12,8.47,2.51,11,7.81,34.65,20.35,52.36C89.79,164.58,94.41,166.59,98,165.85Z" transform="translate(-5.34 -83)"/><path class="cls-6" d="M196,155.49a2.23,2.23,0,0,1-1.77,2.19A2.27,2.27,0,0,1,196,160v.64c0,1.93-1.52,2.9-4.56,2.89h-8.1c-.47,0-.71-.21-.71-.68s.25-.68.71-.68h8.39c1.7,0,2.57-.48,2.57-1.44v-1.11c0-.77-.84-1.17-2.51-1.17h-8.45c-.49,0-.73-.22-.73-.67a.64.64,0,0,1,.73-.71h8.46c1.66,0,2.5-.41,2.5-1.23v-1.1q0-1.17-2.55-1.17h-8.46c-.49,0-.73-.23-.73-.68s.24-.68.73-.68h8c3.14,0,4.7.87,4.7,2.61Z" transform="translate(-5.34 -83)"/><path class="cls-6" d="M218.41,163.53c-2.54,0-3.81-.79-3.81-2.4v-8.31q0-.69.84-.69t.87.69v8.31c0,.69.67,1,2,1h8c.42,0,.64.24.64.73a.56.56,0,0,1-.49.63h-8.1Z" transform="translate(-5.34 -83)"/><path class="cls-6" d="M255.54,161.3c0,1.49-1.22,2.24-3.63,2.24h-7.5c-.43,0-.64-.23-.64-.69s.21-.67.64-.67h7.71c1.14,0,1.71-.45,1.71-1.34v-1.32c0-.75-.71-1.12-2.16-1.12h-4.6c-2.54,0-3.81-.68-3.81-2v-1.87c0-1.54,1.09-2.3,3.28-2.3h2.78c.43,0,.64.24.64.69s-.21.66-.64.66h-3c-.89,0-1.34.36-1.34,1.06v1.59c0,.58.62.85,1.85.85h4.69c2.72,0,4.07.77,4.07,2.3Z" transform="translate(-5.34 -83)"/><path class="cls-6" d="M278.86,153.49c-2.42,0-3.63.63-3.63,1.88v7.45c0,.47-.28.7-.85.7s-.81-.24-.81-.7v-7.57c0-2.08,1.85-3.12,5.57-3.12h7.08c3.53,0,5.28,1,5.28,3.12v7.57c0,.47-.28.7-.84.7s-.87-.24-.87-.7v-7.43c0-1.27-1.11-1.9-3.32-1.9Zm3,1.35c0-.48.28-.72.83-.72s.85.25.85.72v7.9a.74.74,0,0,1-.85.85c-.57,0-.83-.28-.83-.85Z" transform="translate(-5.34 -83)"/><path class="cls-6" d="M250.23,165.68a.32.32,0,0,1-.32.32h-1.78a.32.32,0,0,1-.33-.32h0v-1a.32.32,0,0,1,.33-.31h1.78a.31.31,0,0,1,.32.31h0Z" transform="translate(-5.34 -83)"/><path class="cls-6" d="M265,152.82c0-.46-.28-.69-.83-.69s-.89.23-.89.69v1.76H265Z" transform="translate(-5.34 -83)"/><path class="cls-6" d="M263.31,162.9c0,.46.29.69.86.69s.86-.23.86-.69v-7.38h-1.71Z" transform="translate(-5.34 -83)"/><path class="cls-6" d="M235.41,152.84c0-.47-.27-.7-.82-.7s-.89.24-.89.7v1.76h1.71Z" transform="translate(-5.34 -83)"/><path class="cls-6" d="M233.7,162.91c0,.46.28.69.85.69s.86-.25.86-.69v-7.38h-1.7Z" transform="translate(-5.34 -83)"/><path class="cls-6" d="M206.32,152.81c0-.47-.28-.71-.83-.71s-.88.25-.88.71v1.75h1.7Z" transform="translate(-5.34 -83)"/><path class="cls-6" d="M204.61,162.87c0,.45.29.69.85.69s.86-.24.86-.69v-7.38h-1.7Z" transform="translate(-5.34 -83)"/><path class="cls-1" d="M250.62,142.83a14.17,14.17,0,0,1-2.43-.22V147c.88,0,1.69.07,2.43.07s1.53,0,2.42-.07v-4.41A14.05,14.05,0,0,1,250.62,142.83Z" transform="translate(-5.34 -83)"/><path class="cls-3" d="M148.79,123.67a6.7,6.7,0,0,0-3.21-1.63,16.54,16.54,0,0,0-3.21-.37H118.06a8.55,8.55,0,0,0-2,.26,2.94,2.94,0,0,0-1.81,1.25,3.37,3.37,0,0,0-.61,1.49,12.26,12.26,0,0,0-.11,1.36v20.78h5.56V127.65a4.57,4.57,0,0,1,.07-1,.75.75,0,0,1,.16-.35,1.72,1.72,0,0,1,.35-.25,2,2,0,0,1,.88-.13h8.94v20.87h5.56V125.93h6a9.72,9.72,0,0,1,1.7.19,2.82,2.82,0,0,1,1.64,1,3.53,3.53,0,0,1,.87,1.76,9.12,9.12,0,0,1,.2,1.81v16.12h5.54v-17a10.29,10.29,0,0,0-.59-3.52A6.93,6.93,0,0,0,148.79,123.67Z" transform="translate(-5.34 -83)"/><path class="cls-3" d="M195.42,134.82a2.29,2.29,0,0,1-.37-1.19,2.07,2.07,0,0,1,.25-1,4,4,0,0,1,.58-.78l.75-.82L207,121.67h-6.71l-9,8.34c-.24.29-.51.62-.78,1l-.36.51a3.89,3.89,0,0,0-.61,2.3,4.11,4.11,0,0,0,.59,2.27,9.39,9.39,0,0,0,1.12,1.53l10.08,9.2h6.9l-12-10.87A8.25,8.25,0,0,1,195.42,134.82Z" transform="translate(-5.34 -83)"/><path class="cls-3" d="M182.56,131v15.81h5.57V112.52s-5.57,0-5.57,3.9Z" transform="translate(-5.34 -83)"/><path class="cls-3" d="M291.48,138.1a5.29,5.29,0,0,0-1.22-2.3,6.83,6.83,0,0,0-2.48-1.58c-1-.39-2.29-.82-3.8-1.27l-7.06-1.53a3.9,3.9,0,0,1-.67-.18l-.69-.24-.18-.07c-.3-.11-.6-.22-.88-.35a3.24,3.24,0,0,1-.71-.44,1.74,1.74,0,0,1-.69-.93,4.29,4.29,0,0,1-.12-1,5.12,5.12,0,0,1,.09-1,1.54,1.54,0,0,1,.6-.85,2,2,0,0,1,1-.42c.33,0,.65,0,1,0h15v-4.26H274.79c-.54,0-1.09,0-1.65,0a8.92,8.92,0,0,0-1.62.24,5.69,5.69,0,0,0-1.49.66,5,5,0,0,0-1.29,1.22,5.62,5.62,0,0,0-1,2.18,9.77,9.77,0,0,0,0,4.17,5.29,5.29,0,0,0,.24.8,6.51,6.51,0,0,0,.73,1.38,6.26,6.26,0,0,0,2.15,1.78,15,15,0,0,0,3.37,1.25l6.51,1.35,2.13.61c.54.16,1,.3,1.31.43s.49.19.73.3a2.42,2.42,0,0,1,.4.25,1.85,1.85,0,0,1,.57.92,3.91,3.91,0,0,1,.12,1c0,.2,0,.45,0,.75a1.33,1.33,0,0,1-.42.82,1.77,1.77,0,0,1-.92.6,3.67,3.67,0,0,1-.94.12H267.91v4.26h17.74a12.17,12.17,0,0,0,2-.16,4.42,4.42,0,0,0,2-.87,6.16,6.16,0,0,0,1.4-1.84,7.48,7.48,0,0,0,.68-3.52A10.41,10.41,0,0,0,291.48,138.1Z" transform="translate(-5.34 -83)"/><path class="cls-3" d="M263.89,131.81c0-.26-.05-.54-.08-.81a15,15,0,0,0-.35-1.89,14.09,14.09,0,0,0-1-2.73,7.63,7.63,0,0,0-1.72-2.35,8.13,8.13,0,0,0-2.33-1.49,12.79,12.79,0,0,0-2.66-.81,17.44,17.44,0,0,0-2.7-.31c-.88,0-1.71,0-2.46,0s-1.57,0-2.46,0a18.89,18.89,0,0,0-2.71.31,13,13,0,0,0-2.66.82,8,8,0,0,0-2.31,1.49,7.34,7.34,0,0,0-1.75,2.35,14.16,14.16,0,0,0-1,2.76,16.46,16.46,0,0,0-.34,1.86c0,.3-.07.61-.09.91q-.09,1.37-.09,2.4c0,.64,0,1.4.09,2.26a19,19,0,0,0,.4,2.71,12.36,12.36,0,0,0,.95,2.72,7.69,7.69,0,0,0,1.8,2.39,8.2,8.2,0,0,0,2.31,1.5,13.11,13.11,0,0,0,2.66.79c.36.07.72.12,1.07.17v-4.71a5.69,5.69,0,0,1-1.92-1.41,5.75,5.75,0,0,1-1.41-3.14,26.31,26.31,0,0,1-.21-3.32c0-.41,0-.89,0-1.46a15.09,15.09,0,0,1,.16-1.78v0a9.92,9.92,0,0,1,.47-1.8,5,5,0,0,1,.92-1.56,4.23,4.23,0,0,1,1.34-1.07,7.67,7.67,0,0,1,1.59-.61,8.15,8.15,0,0,1,1.63-.26c.56,0,1.06,0,1.51,0s1,0,1.56,0a7.76,7.76,0,0,1,1.59.26,6.45,6.45,0,0,1,1.52.61,5.59,5.59,0,0,1,1.35,1.07,4.52,4.52,0,0,1,1,1.58,9.93,9.93,0,0,1,.47,1.78h0a10.37,10.37,0,0,1,.15,1.76v1.51a25.17,25.17,0,0,1-.22,3.36,5.9,5.9,0,0,1-3.34,4.51v4.71l1.06-.16a14,14,0,0,0,2.7-.8,7.78,7.78,0,0,0,2.31-1.5,10.41,10.41,0,0,0,2.29-3.79,18.38,18.38,0,0,0,.92-6.47C264,133.47,264,132.7,263.89,131.81Z" transform="translate(-5.34 -83)"/><path class="cls-3" d="M178.56,125.9a5.59,5.59,0,0,0-3.56-3.71,8.39,8.39,0,0,0-3-.52H160c-4,0-4,4.26-4,4.26h14.06a5.89,5.89,0,0,1,1.39.19,2.36,2.36,0,0,1,1.3.91,2.71,2.71,0,0,1,.61,1.19,6.53,6.53,0,0,1,.11,1.17V141.2a3.43,3.43,0,0,1,0,.56.88.88,0,0,1-.33.49,1.05,1.05,0,0,1-.65.27l-.6,0h-9.39a2.44,2.44,0,0,1-1-.25,2.55,2.55,0,0,1-.77-.52,2.26,2.26,0,0,1-.65-1.38A11.18,11.18,0,0,1,160,139a5.52,5.52,0,0,1,.24-1.94c.12-.26.25-.52.39-.77a1.77,1.77,0,0,1,1.1-.73,5,5,0,0,1,.94-.14h9.19v-4.25H161a11.46,11.46,0,0,0-2.19.22,5.09,5.09,0,0,0-2.42,1.26,5.33,5.33,0,0,0-1.77,2.84,15.05,15.05,0,0,0-.36,3.28c0,.48,0,1,0,1.61a10.45,10.45,0,0,0,.26,1.84,7.9,7.9,0,0,0,.68,1.83,5.44,5.44,0,0,0,1.19,1.55,4.32,4.32,0,0,0,2.32,1.09,18.58,18.58,0,0,0,2.24.14h13.68a11.46,11.46,0,0,0,1.85-.16,3,3,0,0,0,1.62-.84,3.1,3.1,0,0,0,.82-1.62,8.52,8.52,0,0,0,.18-1.6v-13A11,11,0,0,0,178.56,125.9Z" transform="translate(-5.34 -83)"/><path class="cls-3" d="M228.56,116.64v23.77c0,.19,0,.48-.05.88a1.19,1.19,0,0,1-.37.86,1.13,1.13,0,0,1-.78.35l-.7.05h-6.12a8.42,8.42,0,0,1-1.33-.11,5.67,5.67,0,0,1-1.4-.37,4.22,4.22,0,0,1-1.31-.85,4.36,4.36,0,0,1-1-1.52,11.78,11.78,0,0,1-.41-1.52,23.23,23.23,0,0,1-.27-4.14,22,22,0,0,1,.18-3,8.15,8.15,0,0,1,.16-.86,7.61,7.61,0,0,1,.75-2,4,4,0,0,1,2.24-1.84,9.05,9.05,0,0,1,2.42-.38h6.29v-4.26h-7.37q-.77,0-1.83.09a11.29,11.29,0,0,0-2.23.44,9.17,9.17,0,0,0-2.34,1.12,7.63,7.63,0,0,0-2.07,2.09,9.73,9.73,0,0,0-1.61,4.16c-.07.48-.12,1-.17,1.44a27.26,27.26,0,0,0-.16,2.86,26.2,26.2,0,0,0,.38,5,15.81,15.81,0,0,0,.85,2.95,8.34,8.34,0,0,0,1.7,2.65,7.47,7.47,0,0,0,4.27,2.17,13.16,13.16,0,0,0,2.08.16h11.58a9.28,9.28,0,0,0,1.82-.18,2.68,2.68,0,0,0,1.64-1.09,3.54,3.54,0,0,0,.57-1.44,8,8,0,0,0,.19-1.69V112.75S228.56,112.75,228.56,116.64Z" transform="translate(-5.34 -83)"/></svg>